<?xml version="1.0" encoding="UTF-8" standalone="no"?>
<svg
   xmlns:dc="http://purl.org/dc/elements/1.1/"
   xmlns:cc="http://creativecommons.org/ns#"
   xmlns:rdf="http://www.w3.org/1999/02/22-rdf-syntax-ns#"
   xmlns:svg="http://www.w3.org/2000/svg"
   xmlns="http://www.w3.org/2000/svg"
   style="enable-background:new"
   version="1.1"
   height="16"
   width="84"
   id="svg4306">
  <title
     id="title954">Noctual</title>
  <metadata
     id="metadata40">
    <rdf:RDF>
      <cc:Work
         rdf:about="">
        <dc:format>image/svg+xml</dc:format>
        <dc:type
           rdf:resource="http://purl.org/dc/dcmitype/StillImage" />
        <dc:title>Noctual</dc:title>
        <dc:date>2018</dc:date>
        <dc:creator>
          <cc:Agent>
            <dc:title>Rokin</dc:title>
          </cc:Agent>
        </dc:creator>
        <dc:source>https://github.com/Rokin05</dc:source>
      </cc:Work>
    </rdf:RDF>
  </metadata>
  <defs
     id="defs38" />
  <g
     transform="matrix(0.9992677,0,0,1,-42.461736,-2.5)"
     style="enable-background:new"
     id="active-center">
    <path
       id="path2-67-2-6"
       d="m 50.502128,18.499973 c 4.418965,0 8.001308,-3.581731 8.001308,-8.000036 0,-4.4183055 -3.582343,-8.000036 -8.001308,-8.000036 -4.419096,0 -8.001449,3.5817305 -8.001449,8.000036 0,4.418305 3.582353,8.000036 8.001449,8.000036"
       style="opacity:0.01000001;fill:#14151f;fill-opacity:1;fill-rule:evenodd;stroke:none;stroke-width:1.14295816;enable-background:new" />
    <path
       style="opacity:1;fill:#dcdcf0;fill-opacity:1;stroke:none;stroke-width:2.72080255;stroke-linecap:round;stroke-linejoin:round;stroke-miterlimit:4;stroke-dasharray:none;stroke-opacity:1;enable-background:new"
       d="m 46.400457,8.3955744 c -0.532418,0.5333723 -0.532418,1.3921871 0,1.9256956 l 1.922084,1.925692 -1.922084,1.925696 c -0.532418,0.533506 -0.532418,1.392321 0,1.925696 0.532416,0.533506 1.389666,0.533506 1.922084,0 l 1.922083,-1.925696 1.922086,1.925696 c 0.532417,0.533506 1.389667,0.533506 1.922085,0 0.532416,-0.533375 0.532416,-1.39219 0,-1.925696 L 52.16671,12.246962 54.088795,10.32127 c 0.532416,-0.5335085 0.532416,-1.3923232 0,-1.9256955 -0.532418,-0.5335078 -1.389668,-0.5335078 -1.922085,0 L 50.244624,10.32127 48.322541,8.3955744 c -0.532418,-0.5335078 -1.389668,-0.5335078 -1.922084,0 z"
       id="path6-0-1-5" />
  </g>
  <g
     transform="matrix(0.9992677,0,0,1,-25.975853,-2.5049494)"
     style="enable-background:new"
     id="hover-center">
    <path
       id="path2-67-2-6-2"
       d="m 50.502128,18.499973 c 4.418965,0 8.001308,-3.581731 8.001308,-8.000036 0,-4.4183055 -3.582343,-8.000036 -8.001308,-8.000036 -4.419096,0 -8.001449,3.5817305 -8.001449,8.000036 0,4.418305 3.582353,8.000036 8.001449,8.000036"
       style="opacity:0.01000001;fill:#14151f;fill-opacity:1;fill-rule:evenodd;stroke:none;stroke-width:1.14295816;enable-background:new" />
    <path
       style="opacity:0.7;fill:#dcdcf0;fill-opacity:1;stroke:none;stroke-width:2.72080255;stroke-linecap:round;stroke-linejoin:round;stroke-miterlimit:4;stroke-dasharray:none;stroke-opacity:1;enable-background:new"
       d="m 46.400457,8.3955744 c -0.532418,0.5333723 -0.532418,1.3921871 0,1.9256956 l 1.922084,1.925692 -1.922084,1.925696 c -0.532418,0.533506 -0.532418,1.392321 0,1.925696 0.532416,0.533506 1.389666,0.533506 1.922084,0 l 1.922083,-1.925696 1.922086,1.925696 c 0.532417,0.533506 1.389667,0.533506 1.922085,0 0.532416,-0.533375 0.532416,-1.39219 0,-1.925696 L 52.16671,12.246962 54.088795,10.32127 c 0.532416,-0.5335085 0.532416,-1.3923232 0,-1.9256955 -0.532418,-0.5335078 -1.389668,-0.5335078 -1.922085,0 L 50.244624,10.32127 48.322541,8.3955744 c -0.532418,-0.5335078 -1.389668,-0.5335078 -1.922084,0 z"
       id="path6-0-1-5-9" />
  </g>
  <g
     transform="matrix(0.9992677,0,0,1,-9.4758529,-2.5049494)"
     style="enable-background:new"
     id="pressed-center">
    <path
       id="path2-67-2-6-27"
       d="m 50.502128,18.499973 c 4.418965,0 8.001308,-3.581731 8.001308,-8.000036 0,-4.4183055 -3.582343,-8.000036 -8.001308,-8.000036 -4.419096,0 -8.001449,3.5817305 -8.001449,8.000036 0,4.418305 3.582353,8.000036 8.001449,8.000036"
       style="opacity:0.01000001;fill:#14151f;fill-opacity:1;fill-rule:evenodd;stroke:none;stroke-width:1.14295816;enable-background:new" />
    <path
       style="opacity:0.7;fill:#dcdcf0;fill-opacity:1;stroke:none;stroke-width:2.72080255;stroke-linecap:round;stroke-linejoin:round;stroke-miterlimit:4;stroke-dasharray:none;stroke-opacity:1;enable-background:new"
       d="m 46.400457,8.3955744 c -0.532418,0.5333723 -0.532418,1.3921871 0,1.9256956 l 1.922084,1.925692 -1.922084,1.925696 c -0.532418,0.533506 -0.532418,1.392321 0,1.925696 0.532416,0.533506 1.389666,0.533506 1.922084,0 l 1.922083,-1.925696 1.922086,1.925696 c 0.532417,0.533506 1.389667,0.533506 1.922085,0 0.532416,-0.533375 0.532416,-1.39219 0,-1.925696 L 52.16671,12.246962 54.088795,10.32127 c 0.532416,-0.5335085 0.532416,-1.3923232 0,-1.9256955 -0.532418,-0.5335078 -1.389668,-0.5335078 -1.922085,0 L 50.244624,10.32127 48.322541,8.3955744 c -0.532418,-0.5335078 -1.389668,-0.5335078 -1.922084,0 z"
       id="path6-0-1-5-0" />
  </g>
  <g
     transform="matrix(0.9992677,0,0,1,7.0241471,-2.5049494)"
     style="enable-background:new"
     id="inactive-center">
    <path
       id="path2-67-2-6-3"
       d="m 50.502128,18.499973 c 4.418965,0 8.001308,-3.581731 8.001308,-8.000036 0,-4.4183055 -3.582343,-8.000036 -8.001308,-8.000036 -4.419096,0 -8.001449,3.5817305 -8.001449,8.000036 0,4.418305 3.582353,8.000036 8.001449,8.000036"
       style="opacity:0.01000001;fill:#14151f;fill-opacity:1;fill-rule:evenodd;stroke:none;stroke-width:1.14295816;enable-background:new" />
    <path
       style="opacity:0.5;fill:#3c3c50;fill-opacity:1;stroke:none;stroke-width:2.72080255;stroke-linecap:round;stroke-linejoin:round;stroke-miterlimit:4;stroke-dasharray:none;stroke-opacity:1;enable-background:new"
       d="m 46.400457,8.3955744 c -0.532418,0.5333723 -0.532418,1.3921871 0,1.9256956 l 1.922084,1.925692 -1.922084,1.925696 c -0.532418,0.533506 -0.532418,1.392321 0,1.925696 0.532416,0.533506 1.389666,0.533506 1.922084,0 l 1.922083,-1.925696 1.922086,1.925696 c 0.532417,0.533506 1.389667,0.533506 1.922085,0 0.532416,-0.533375 0.532416,-1.39219 0,-1.925696 L 52.16671,12.246962 54.088795,10.32127 c 0.532416,-0.5335085 0.532416,-1.3923232 0,-1.9256955 -0.532418,-0.5335078 -1.389668,-0.5335078 -1.922085,0 L 50.244624,10.32127 48.322541,8.3955744 c -0.532418,-0.5335078 -1.389668,-0.5335078 -1.922084,0 z"
       id="path6-0-1-5-6" />
  </g>
  <g
     transform="matrix(0.9992677,0,0,1,23.534081,-2.4950109)"
     style="enable-background:new"
     id="deactivated-center">
    <path
       id="path2-67-2-6-6"
       d="m 50.502128,18.499973 c 4.418965,0 8.001308,-3.581731 8.001308,-8.000036 0,-4.4183055 -3.582343,-8.000036 -8.001308,-8.000036 -4.419096,0 -8.001449,3.5817305 -8.001449,8.000036 0,4.418305 3.582353,8.000036 8.001449,8.000036"
       style="opacity:0.01000001;fill:#14151f;fill-opacity:1;fill-rule:evenodd;stroke:none;stroke-width:1.14295816;enable-background:new" />
    <path
       style="opacity:0.5;fill:#3c3c50;fill-opacity:1;stroke:none;stroke-width:2.72080255;stroke-linecap:round;stroke-linejoin:round;stroke-miterlimit:4;stroke-dasharray:none;stroke-opacity:1;enable-background:new"
       d="m 46.400457,8.3955744 c -0.532418,0.5333723 -0.532418,1.3921871 0,1.9256956 l 1.922084,1.925692 -1.922084,1.925696 c -0.532418,0.533506 -0.532418,1.392321 0,1.925696 0.532416,0.533506 1.389666,0.533506 1.922084,0 l 1.922083,-1.925696 1.922086,1.925696 c 0.532417,0.533506 1.389667,0.533506 1.922085,0 0.532416,-0.533375 0.532416,-1.39219 0,-1.925696 L 52.16671,12.246962 54.088795,10.32127 c 0.532416,-0.5335085 0.532416,-1.3923232 0,-1.9256955 -0.532418,-0.5335078 -1.389668,-0.5335078 -1.922085,0 L 50.244624,10.32127 48.322541,8.3955744 c -0.532418,-0.5335078 -1.389668,-0.5335078 -1.922084,0 z"
       id="path6-0-1-5-2" />
  </g>
</svg>
